# xmcd
# 
# Track frame offsets:
#     150
#     17918
#     32080
#     48099
#     67443
#     86141
#     109773
#     124811
#     142007
#     156019
#     170115
#     182166
#     196958
#     208121
#     236801
#     255165
# 
# Disc length: 3587
# 
# Revision: 4
# Processed by: cddbd v1.5.2PL0 Copyright (c) Steve Scherf et al.
# Submitted via: fre:ac v1.0.31
# 
DISCID=ec0e0110
DTITLE=Various Artist - Zeitgeist - 1978
DYEAR=1978
DGENRE=Schlager
TTITLE0=Andrea Jürgens - ...und Dabei Liebe Ich Euch Beide
TTITLE1=Benny - Bin Wieder Frei (Ça Plane Pour Moi)
TTITLE2=Bernhard Brink - Alles Braucht Seine Zeit (If You Can't Give Me Love)
TTITLE3=Bruce Low - Die Legende Von Babylon (Rivers Of Babylon)
TTITLE4=Chris Roberts - Wann Liegen Wir Uns Wieder In Den Armen, Barbara
TTITLE5=Nina Hagen Band - TV-Glotzer
TTITLE6=Holger Thomas - Er Hat 'ne Punk-Rock-Band In Oberhausen
TTITLE7=Klaus Hoffmann - Kreuzberger Walzer
TTITLE8=Michael Schanze - Schalt Dein Herz Auf Empfang
TTITLE9=Paola - Ich Bin Kein Hampelmann (Substitute)
TTITLE10=Rex Gildo - Tanze Samba Mit Mir (A Far L'Amore Comincia Tu)
TTITLE11=Roland Kaiser - Amore Mio (Amada Mia, Amore Mio)
TTITLE12=Rudi Carrell - Goethe War Gut
TTITLE13=Stern Combo Meissen - Der Weite Weg
TTITLE14=Torfrock - Volle Granate, Renate
TTITLE15=Wolfgang Ambros - I Bin's Ned (It Ain't Me Babe)
EXTD=YEAR: 2008
EXTT0=
EXTT1=
EXTT2=
EXTT3=
EXTT4=
EXTT5=
EXTT6=
EXTT7=
EXTT8=
EXTT9=
EXTT10=
EXTT11=
EXTT12=
EXTT13=
EXTT14=
EXTT15=
PLAYORDER=
